HIERARCHY
ROOT joint_Root
{
	OFFSET 0.0 0.0 0.0
	CHANNELS 6 Xposition Yposition Zposition Zrotation Xrotation Yrotation 
	JOINT Hips
	{
		OFFSET -17.1583 93.1646 452.98
		CHANNELS 6 Xposition Yposition Zposition Zrotation Xrotation Yrotation 
		JOINT Spine
		{
			OFFSET 15.7357 0.0 0.0
			CHANNELS 6 Xposition Yposition Zposition Zrotation Xrotation Yrotation 
			JOINT Chest
			{
				OFFSET 8.98455 -0.406207 0.0
				CHANNELS 6 Xposition Yposition Zposition Zrotation Xrotation Yrotation 
				JOINT Neck
				{
					OFFSET 16.3773 0.0 0.0
					CHANNELS 6 Xposition Yposition Zposition Zrotation Xrotation Yrotation 
					JOINT Head
					{
						OFFSET 6.45672 0.0 0.0
						CHANNELS 6 Xposition Yposition Zposition Zrotation Xrotation Yrotation 
						End Site
						{
							OFFSET 0.0 0.0 0.0
						}
					}
				}
				JOINT Shoulder_L
				{
					OFFSET 12.9942 -0.242716 4.98039
					CHANNELS 6 Xposition Yposition Zposition Zrotation Xrotation Yrotation 
					JOINT UpperArm_L
					{
						OFFSET 5.34809 0.0 0.0
						CHANNELS 6 Xposition Yposition Zposition Zrotation Xrotation Yrotation 
						JOINT LowerArm_L
						{
							OFFSET 24.3286 1.87007e-05 0.0
							CHANNELS 6 Xposition Yposition Zposition Zrotation Xrotation Yrotation 
							JOINT Hand_L
							{
								OFFSET 22.2916 0.0 0.0
								CHANNELS 6 Xposition Yposition Zposition Zrotation Xrotation Yrotation 
								End Site
								{
									OFFSET 0.0 0.0 0.0
								}
							}
						}
					}
				}
				JOINT Shoulder_R
				{
					OFFSET 12.9945 -0.242716 -4.98039
					CHANNELS 6 Xposition Yposition Zposition Zrotation Xrotation Yrotation 
					JOINT UpperArm_R
					{
						OFFSET -5.34813 0.0 0.0
						CHANNELS 6 Xposition Yposition Zposition Zrotation Xrotation Yrotation 
						JOINT LowerArm_R
						{
							OFFSET -24.3289 0.000322201 0.0
							CHANNELS 6 Xposition Yposition Zposition Zrotation Xrotation Yrotation 
							JOINT Hand_R
							{
								OFFSET -22.2915 -0.000108084 0.0
								CHANNELS 6 Xposition Yposition Zposition Zrotation Xrotation Yrotation 
								End Site
								{
									OFFSET 0.0 0.0 0.0
								}
							}
						}
					}
				}
			}
		}
		JOINT UpperLeg_L
		{
			OFFSET -2.19248 -6.46944 0.0
			CHANNELS 6 Xposition Yposition Zposition Zrotation Xrotation Yrotation 
			JOINT LowerLeg_L
			{
				OFFSET 39.0811 0.0 -1.23785e-05
				CHANNELS 6 Xposition Yposition Zposition Zrotation Xrotation Yrotation 
				JOINT Foot_L
				{
					OFFSET 40.9854 0.0 -1.26872e-05
					CHANNELS 6 Xposition Yposition Zposition Zrotation Xrotation Yrotation 
					JOINT Toes_L
					{
						OFFSET 11.7543 0.0 0.0
						CHANNELS 6 Xposition Yposition Zposition Zrotation Xrotation Yrotation 
						End Site
						{
							OFFSET 0.0 0.0 0.0
						}
					}
				}
			}
		}
		JOINT UpperLeg_R
		{
			OFFSET -2.19251 6.46944 0.0
			CHANNELS 6 Xposition Yposition Zposition Zrotation Xrotation Yrotation 
			JOINT LowerLeg_R
			{
				OFFSET -39.0811 -0.00228153 -0.0401928
				CHANNELS 6 Xposition Yposition Zposition Zrotation Xrotation Yrotation 
				JOINT Foot_R
				{
					OFFSET -40.9854 0.0 0.0
					CHANNELS 6 Xposition Yposition Zposition Zrotation Xrotation Yrotation 
					JOINT Toes_R
					{
						OFFSET -11.7543 0.0 0.0
						CHANNELS 6 Xposition Yposition Zposition Zrotation Xrotation Yrotation 
						End Site
						{
							OFFSET 0.0 0.0 0.0
						}
					}
				}
			}
		}
	}
}
MOTION
Frames:	5
Frame Time:	0.0333333
0.000000 0.000000 0.000000 0.000000 0.000000 -0.000000 -4.039120 91.840600 -1.699680 83.457900 1.126480 5.761220 15.735700 0.000005 -0.000001 57.011800 86.253600 -54.831100 8.984550 -0.406207 -0.000000 -1.397280 -4.253010 4.309730 16.377300 -0.000001 -0.000001 9.449910 -0.949930 6.385010 6.456720 -0.000001 -0.000000 1.696270 -0.611696 14.870700 12.994200 -0.242716 4.980390 -92.057100 6.118530 -71.377000 5.348090 -0.000007 -0.000001 -74.114000 27.796400 1.742090 24.328600 0.000019 0.000005 12.650000 28.882400 -24.922900 22.291600 -0.000001 0.000005 -3.514270 5.031320 6.646170 12.994500 -0.242716 -4.980390 88.109300 5.173300 -69.892200 -5.348130 -0.000001 -0.000004 -70.025700 -2.376660 -13.696900 -24.328900 0.000322 -0.000009 16.021000 -19.473800 -139.260000 -22.291500 -0.000108 -0.000004 54.207100 5.648350 -14.860800 -2.192480 -6.469440 -0.000000 -170.809000 5.958550 -3.721500 39.081100 -0.000007 -0.000012 0.415879 -0.738275 29.394200 40.985400 -0.000006 -0.000013 0.143914 8.403070 -76.690900 11.754300 -0.000000 0.000003 0.001024 0.148118 -10.569900 -2.192510 6.469440 -0.000001 -169.353000 7.276820 -176.229000 -39.081100 -0.002282 -0.040193 0.131360 -0.436598 16.343900 -40.985400 0.000008 0.000006 5.621170 0.539541 -71.051300 -11.754300 -0.000006 -0.000006 -0.008064 0.256220 -6.167530
0.000000 0.000000 0.000000 0.000000 0.000000 -0.000000 -3.977340 91.862400 -1.747070 83.469400 1.187850 5.699460 15.735700 0.000005 -0.000001 57.146400 86.246200 -54.968000 8.984550 -0.406207 -0.000000 -1.375440 -4.245700 4.306020 16.377300 -0.000001 -0.000001 9.411860 -1.010710 6.389510 6.456720 -0.000001 -0.000000 1.663750 -0.769081 14.818000 12.994200 -0.242716 4.980390 -92.049000 6.110350 -71.421900 5.348090 -0.000007 -0.000001 -74.186600 27.691000 1.761020 24.328600 0.000019 0.000005 12.647900 28.881100 -24.920000 22.291600 -0.000001 0.000005 -3.517520 5.031990 6.631650 12.994500 -0.242716 -4.980390 88.118400 5.137130 -69.852100 -5.348130 -0.000001 -0.000004 -70.117600 -2.352640 -13.599400 -24.328900 0.000322 -0.000009 15.974000 -19.386400 -139.226000 -22.291500 -0.000108 -0.000004 54.322900 5.647920 -14.819800 -2.192480 -6.469440 -0.000000 -170.855000 5.948200 -3.793280 39.081100 -0.000007 -0.000012 0.409835 -0.729766 29.319500 40.985400 -0.000006 -0.000013 0.182041 8.405520 -76.611500 11.754300 -0.000000 0.000003 0.000983 0.149007 -10.533900 -2.192510 6.469440 -0.000001 -169.392000 7.264180 -176.282000 -39.081100 -0.002282 -0.040193 0.129849 -0.433864 16.257700 -40.985400 0.000008 0.000006 5.560830 0.489202 -71.016000 -11.754300 -0.000006 -0.000006 -0.008430 0.259171 -6.047000
0.000000 0.000000 0.000000 0.000000 0.000000 -0.000000 -3.910010 91.878000 -1.798360 83.509700 1.216020 5.601510 15.735700 0.000005 -0.000001 57.183300 86.247300 -55.019800 8.984550 -0.406207 -0.000000 -1.375500 -4.239190 4.276210 16.377300 -0.000001 -0.000001 9.368520 -1.067850 6.436350 6.456720 -0.000001 -0.000000 1.612950 -0.837669 14.726100 12.994200 -0.242716 4.980390 -92.042500 6.094660 -71.432600 5.348090 -0.000007 -0.000001 -74.242700 27.714900 1.797940 24.328600 0.000019 0.000005 12.559800 28.688100 -24.896100 22.291600 -0.000001 0.000005 -3.440390 5.030840 6.656420 12.994500 -0.242716 -4.980390 88.125000 5.114670 -69.836100 -5.348130 -0.000001 -0.000004 -70.273700 -2.322770 -13.491900 -24.328900 0.000322 -0.000009 16.061600 -19.443000 -139.142000 -22.291500 -0.000108 -0.000004 54.310400 5.647440 -14.775800 -2.192480 -6.469440 -0.000000 -170.948000 5.996260 -3.916470 39.081100 -0.000007 -0.000012 0.414164 -0.738896 29.272400 40.985400 -0.000006 -0.000013 0.210635 8.362000 -76.538100 11.754300 -0.000000 0.000003 0.000940 0.149920 -10.496800 -2.192510 6.469440 -0.000001 -169.463000 7.245840 -176.429000 -39.081100 -0.002282 -0.040193 0.130315 -0.435044 16.272400 -40.985400 0.000008 0.000006 5.519300 0.474783 -70.974500 -11.754300 -0.000006 -0.000006 -0.008349 0.258522 -6.073500
0.000000 0.000000 0.000000 0.000000 0.000000 -0.000000 -3.846730 91.904000 -1.840190 83.532300 1.241980 5.542320 15.735700 0.000005 -0.000001 57.225900 86.238500 -55.073500 8.984550 -0.406207 -0.000000 -1.358060 -4.242790 4.254670 16.377300 -0.000001 -0.000001 9.330410 -1.073090 6.411860 6.456720 -0.000001 -0.000000 1.547530 -0.884590 14.763400 12.994200 -0.242716 4.980390 -92.033600 6.081450 -71.470500 5.348090 -0.000007 -0.000001 -74.322800 27.686100 1.889410 24.328600 0.000019 0.000005 12.570000 28.698100 -24.907600 22.291600 -0.000001 0.000005 -3.457320 5.034060 6.586580 12.994500 -0.242716 -4.980390 88.113700 5.145310 -69.835500 -5.348130 -0.000001 -0.000004 -70.347800 -2.329960 -13.391400 -24.328900 0.000322 -0.000009 15.915300 -19.284200 -139.191000 -22.291500 -0.000108 -0.000004 54.132200 5.646750 -14.712800 -2.192480 -6.469440 -0.000000 -171.006000 5.991010 -3.953300 39.081100 -0.000007 -0.000012 0.408735 -0.732698 29.155900 40.985400 -0.000006 -0.000013 0.243174 8.355110 -76.428700 11.754300 -0.000000 0.000003 0.001056 0.147410 -10.598700 -2.192510 6.469440 -0.000001 -169.529000 7.200130 -176.482000 -39.081100 -0.002282 -0.040193 0.126839 -0.425292 16.194200 -40.985400 0.000008 0.000006 5.377870 0.474281 -70.869200 -11.754300 -0.000006 -0.000006 -0.007843 0.254412 -6.241370
0.000000 0.000000 0.000000 0.000000 0.000000 -0.000000 -3.783140 91.929400 -1.890410 83.573800 1.248330 5.450800 15.735700 0.000005 -0.000001 57.121400 86.235400 -54.983500 8.984550 -0.406207 -0.000000 -1.360570 -4.256610 4.225320 16.377300 -0.000001 -0.000001 9.242630 -1.070770 6.463520 6.456720 -0.000001 -0.000000 1.569060 -0.824878 14.639100 12.994200 -0.242716 4.980390 -92.023900 6.055150 -71.479100 5.348090 -0.000007 -0.000001 -74.396200 27.689600 1.957180 24.328600 0.000019 0.000005 12.554300 28.683900 -24.889300 22.291600 -0.000001 0.000005 -3.475850 5.034700 6.572410 12.994500 -0.242716 -4.980390 88.126800 5.118360 -69.867200 -5.348130 -0.000001 -0.000004 -70.497300 -2.197650 -13.303400 -24.328900 0.000322 -0.000009 15.816500 -19.169700 -139.215000 -22.291500 -0.000108 -0.000004 54.132600 5.646100 -14.654200 -2.192480 -6.469440 -0.000000 -171.091000 6.025620 -4.024320 39.081100 -0.000007 -0.000012 0.405694 -0.730660 29.042000 40.985400 -0.000006 -0.000013 0.267162 8.316900 -76.343100 11.754300 -0.000000 0.000003 0.000931 0.150110 -10.489100 -2.192510 6.469440 -0.000001 -169.599000 7.163680 -176.571000 -39.081100 -0.002282 -0.040193 0.124708 -0.419992 16.119700 -40.985400 0.000008 0.000006 5.330140 0.443455 -70.826500 -11.754300 -0.000006 -0.000006 -0.008368 0.258677 -6.067170
